<svg id="Layer_1" data-name="Layer 1" xmlns="http://www.w3.org/2000/svg" xmlns:xlink="http://www.w3.org/1999/xlink" viewBox="0 0 5952.7598 5952.7598"><defs><style>.cls-1{fill:none;}.cls-2{clip-path:url(#clip-path);}.cls-3{fill:url(#linear-gradient);}.cls-4{clip-path:url(#clip-path-2);}.cls-5{fill:url(#linear-gradient-2);}.cls-6{clip-path:url(#clip-path-3);}.cls-7{fill:url(#linear-gradient-3);}.cls-8{clip-path:url(#clip-path-4);}.cls-9{fill:#5e5ed1;}.cls-10{clip-path:url(#clip-path-5);}.cls-11{fill:#fff;}.cls-12{clip-path:url(#clip-path-6);}.cls-13{fill:url(#linear-gradient-4);}.cls-14{clip-path:url(#clip-path-7);}.cls-15{fill:url(#linear-gradient-5);}.cls-16{clip-path:url(#clip-path-8);}</style><clipPath id="clip-path"><polygon class="cls-1" points="711.63 1650.883 711.63 4325.658 3028.054 5663.046 5344.475 4325.66 5344.475 1650.881 3028.054 313.5 711.63 1650.883"/></clipPath><linearGradient id="linear-gradient" x1="-0.3858" y1="5952.8738" x2="1.4261" y2="5952.8738" gradientTransform="translate(1698 -15218501.1879) scale(2556.9985)" gradientUnits="userSpaceOnUse"><stop offset="0" stop-color="#f0f"/><stop offset="1" stop-color="#29abe2"/></linearGradient><clipPath id="clip-path-2"><path class="cls-1" d="M983.4047,4168.75V1807.7931l2044.65-1180.479L5072.7,1807.7931V4168.75L3028.0543,5349.23ZM2892.1688,78.136,575.7448,1415.521a271.76,271.76,0,0,0-135.8872,234.2754V4326.7546A271.7625,271.7625,0,0,0,575.7448,4561.026l2316.424,1337.3854a271.7873,271.7873,0,0,0,271.7745,0l2316.42-1337.3854a271.7778,271.7778,0,0,0,135.8873-235.3622V1650.8872a271.7733,271.7733,0,0,0-135.8873-235.3662L3163.9433,78.136a271.7634,271.7634,0,0,0-271.7745,0"/></clipPath><linearGradient id="linear-gradient-2" x1="-0.3879" y1="5952.8618" x2="1.424" y2="5952.8618" gradientTransform="translate(1548.001 -17004326.2112) scale(2856.998)" xlink:href="#linear-gradient"/><clipPath id="clip-path-3"><path class="cls-1" d="M2792.6885,177.6124c-75.0441,129.9863-30.5114,296.2,99.4786,371.2472l135.8872,78.4545V5349.23l-.9077.5235V5934.851c.39,0,.7719.0182,1.1576.0182a270.5632,270.5632,0,0,0,135.6373-36.46L5480.3637,4561.0242a271.7755,271.7755,0,0,0,135.8855-235.3622V1650.8854a271.7747,271.7747,0,0,0-135.8855-235.3644L3163.9415,78.136a271.6534,271.6534,0,0,0-371.253,99.4764"/></clipPath><linearGradient id="linear-gradient-3" x1="-0.0445" y1="5952.9444" x2="1.7673" y2="5952.9444" gradientTransform="translate(2826.4746 -9393880.5357) scale(1578.5245)" gradientUnits="userSpaceOnUse"><stop offset="0" stop-color="#662d91"/><stop offset="1" stop-color="#2e3192"/></linearGradient><clipPath id="clip-path-4"><path class="cls-1" d="M2792.6885,177.6124c-75.0458,129.9846-30.5114,296.2,99.4786,371.2472l135.8872,78.4545V5349.23l-.9077.5253V5934.851c.39,0,.7719.0164,1.1594.0164a270.5691,270.5691,0,0,0,135.6355-36.4578L5480.3637,4561.0242A271.7772,271.7772,0,0,0,5616.251,4325.662V1650.8854a271.7764,271.7764,0,0,0-135.8873-235.3644L3163.9415,78.136a271.6487,271.6487,0,0,0-371.253,99.4764"/></clipPath><clipPath id="clip-path-5"><rect class="cls-1" x="-2364.8563" y="-1897.8941" width="10785.3858" height="10785.3858"/></clipPath><clipPath id="clip-path-6"><polygon class="cls-1" points="711.63 1651.487 3047.078 2863.601 5344.477 1651.487 3027.147 314.359 711.63 1651.487"/></clipPath><linearGradient id="linear-gradient-4" x1="-0.3858" y1="5952.6285" x2="1.4261" y2="5952.6285" gradientTransform="translate(1698 -15219282.2168) scale(2557)" gradientUnits="userSpaceOnUse"><stop offset="0" stop-color="#ff7bac"/><stop offset="1" stop-color="#f0f"/></linearGradient><clipPath id="clip-path-7"><path class="cls-1" d="M1277.1077,1638.7785,3027.2028,628.1616,4782.2423,1640.8421l-1736.2,916.0266ZM3027.1484,42.5842a271.5887,271.5887,0,0,0-135.9072,36.4232L575.7231,1416.1376a271.77,271.77,0,0,0,10.7115,476.5687L2921.8849,3104.82a271.57,271.57,0,0,0,124.1081,30.5547h2.1745a271.7183,271.7183,0,0,0,125.732-31.4022l2297.4-1212.1179a271.7732,271.7732,0,0,0,9.0061-475.765L3162.9723,78.9579A271.5467,271.5467,0,0,0,3027.163,42.5842h-.0146"/></clipPath><linearGradient id="linear-gradient-5" x1="-0.3879" y1="5952.6424" x2="1.4239" y2="5952.6424" gradientTransform="translate(1546.8071 -17018204.475) scale(2859.1997)" xlink:href="#linear-gradient-4"/><clipPath id="clip-path-8"><rect class="cls-1" x="-2364.8563" y="-1897.887" width="10785.3787" height="10785.3787"/></clipPath></defs><title>logo</title><g class="cls-2"><rect class="cls-3" x="711.6302" y="313.4996" width="4632.8445" height="5349.5463"/></g><g class="cls-4"><rect class="cls-5" x="439.8576" y="41.7234" width="5176.3934" height="5893.0969"/></g><g class="cls-6"><rect class="cls-7" x="2717.644" y="41.6738" width="2898.6043" height="5893.1953"/></g><g class="cls-8"><path class="cls-9" d="M5431.0533,1952.94q33.3137-58.2165,95.97-141.1758,45.639-60.3829,67.0943-95.8439,21.4393-35.4175,22.1312-65.0356.9912-42.139-38.1935-43.9732-39.3688-1.824-106.2362,36.0969a537.144,537.144,0,0,0-115.8757,88.0462A574.6082,574.6082,0,0,0,5268.2514,1843.6l-170.1147,14.9839q62.2442-109.4735,164.5863-207.2046,101.2719-96.76,235.9908-171.8124c103.91-57.956,185.8054-85.3909,246.3947-82.9323,60.1159,2.4514,89.2759,36.1552,87.8206,101.1776q-1.0244,45.984-19.4709,90.9719a473.6227,473.6227,0,0,1-44.6889,84.2067q-26.2789,39.2334-68.1595,94.9724-50.2052,66.37-73.6781,105.494-23.471,39.16-24.3491,75.765l-206.4707,122.4525q1.4862-60.2847,34.9414-118.7346m-30.9568,373.11q-37.4539-7.5275-36.3746-51.8,1.0922-44.2317,39.3259-96.4149,38.0749-51.9576,95.73-86.437,57.3009-34.29,93.0969-26.9288,35.7381,7.2859,34.7043,50.7073-1.0191,43.4594-38.8366,96.4a318.6625,318.6625,0,0,1-93.9675,87.4734q-56.3307,34.4775-93.6781,27"/><path class="cls-9" d="M3498.5536,5551.2q41.3043-72.1782,118.9867-175.032,56.5829-74.863,83.1844-118.827,26.577-43.9105,27.4385-80.6317,1.2281-52.2429-47.354-54.5181-48.8079-2.2607-131.7111,44.7525a666.0483,666.0483,0,0,0-143.6653,109.1608,712.7444,712.7444,0,0,0-108.7208,139.5325l-210.9074,18.5766q77.173-135.7213,204.0551-256.8919Q3415.4174,5057.36,3582.44,4964.31c128.83-71.8552,230.3633-105.8708,305.4835-102.8195,74.53,3.0384,110.6848,44.8246,108.88,125.4382q-1.2747,57.0129-24.1408,112.7886a587.2714,587.2714,0,0,1-55.4059,104.4009q-32.5777,48.6394-84.5018,117.7455-62.2525,82.29-91.3452,130.7923-29.11,48.5469-30.1924,93.936L3455.2364,5698.409q1.84-74.7432,43.3172-147.2091m-38.38,462.5816q-46.4331-9.3327-45.0984-64.222,1.3588-54.8385,48.76-119.5374,47.2042-64.4157,118.6855-107.16,71.0389-42.5166,115.4192-33.3886,44.3126,9.034,43.0292,62.8651-1.2614,53.8848-48.15,119.5192a395.13,395.13,0,0,1-116.5008,108.4506q-69.8406,42.7448-116.1451,33.4735"/><path class="cls-9" d="M3263.41,3090.4808q33.3142-58.2165,95.9725-141.1758,45.639-60.38,67.0921-95.8438,21.44-35.415,22.1334-65.0357.992-42.1363-38.1952-43.9731-39.3694-1.824-106.2349,36.0968A537.12,537.12,0,0,0,3188.3,2868.5954a574.6338,574.6338,0,0,0-87.6923,112.5471l-170.1147,14.9821q62.2446-109.4735,164.5867-207.2046,101.2711-96.76,235.9908-171.8124c103.9122-57.9564,185.805-85.3913,246.396-82.9327,60.1146,2.4514,89.2742,36.1552,87.8211,101.178q-1.03,45.984-19.4732,90.9719a473.548,473.548,0,0,1-44.6888,84.21q-26.2785,39.2282-68.16,94.9707-50.2072,66.3678-73.6759,105.4922-23.4763,39.16-24.3513,75.7668L3228.47,3209.2172q1.4869-60.2874,34.94-118.7364m-30.9568,373.11q-37.4507-7.5276-36.3746-51.8,1.0954-44.2315,39.3276-96.4149,38.073-51.9576,95.73-86.437,57.3009-34.29,93.0956-26.9288,35.7408,7.2886,34.7057,50.7073-1.0193,43.4594-38.8385,96.4a318.66,318.66,0,0,1-93.967,87.4752q-56.3282,34.4748-93.6785,26.9979"/><path class="cls-9" d="M5485.3392,3182.9992q33.3137-58.2167,95.9721-141.1759,45.639-60.3829,67.0926-95.8438,21.4393-35.4177,22.1329-65.0357.9927-42.1389-38.1952-43.9731-39.3688-1.824-106.2362,36.0968a537.2908,537.2908,0,0,0-115.8775,88.0462,574.72,574.72,0,0,0-87.6906,112.5453l-170.1147,14.9839q62.244-109.4734,164.5863-207.2045,101.2744-96.76,235.9908-171.8124c103.9121-57.9565,185.8054-85.3914,246.3964-82.9328,60.1142,2.4532,89.2742,36.1552,87.8207,101.178q-1.03,45.984-19.471,90.9719a473.7079,473.7079,0,0,1-44.6906,84.2085q-26.2791,39.2309-68.1595,94.9706-50.2079,66.3705-73.6763,105.494-23.4763,39.16-24.3509,75.7651L5450.4,3301.7337q1.4862-60.2847,34.94-118.7345m-30.9568,373.11q-37.454-7.5309-36.3764-51.8,1.0975-44.2317,39.3295-96.4149,38.0722-51.9578,95.73-86.437,57.2982-34.29,93.0951-26.9289,35.7408,7.2861,34.7043,50.7073-1.0164,43.4595-38.8366,96.4a318.6852,318.6852,0,0,1-93.9675,87.4735q-56.3281,34.4773-93.6781,27"/><path class="cls-9" d="M3130.8225,4441.1573q33.3169-58.2165,95.9743-141.1759,45.639-60.38,67.09-95.842,21.4426-35.4177,22.1352-65.0375.9893-42.1362-38.1953-43.9713-39.3694-1.8267-106.2367,36.0968a537.1943,537.1943,0,0,0-115.8774,88.0445,574.6917,574.6917,0,0,0-87.6906,112.547l-170.1165,14.98q62.2447-109.4682,164.5868-207.2011,101.2737-96.7625,235.9908-171.8119c103.9121-57.9586,185.8067-85.3918,246.396-82.935,60.1163,2.4532,89.2759,36.1552,87.8228,101.178q-1.03,45.984-19.4732,90.9719A473.7556,473.7556,0,0,1,3468.54,4161.21q-26.2778,39.2308-68.16,94.9724-50.2073,66.3678-73.6777,105.4922-23.4737,39.1572-24.3513,75.7669l-206.4689,122.4524q1.49-60.2847,34.94-118.7363m-30.9568,373.11q-37.4506-7.5276-36.3764-51.8,1.0981-44.2284,39.3295-96.4149,38.0755-51.9576,95.73-86.437,57.2982-34.29,93.0973-26.9271,35.7381,7.286,34.7021,50.7056-1.0164,43.4594-38.8349,96.4a318.6844,318.6844,0,0,1-93.9669,87.4752q-56.3283,34.4746-93.68,26.9978"/><path class="cls-9" d="M4347.2342,2579.8793q41.44-72.4116,119.3742-175.601,56.7681-75.1075,83.453-119.2163,26.6693-44.0518,27.53-80.8931,1.2342-52.4142-47.5079-54.6955-48.9659-2.2692-132.14,44.8989a668.2461,668.2461,0,0,0-144.1347,109.5144,715.0231,715.0231,0,0,0-109.0725,139.9891l-211.5978,18.6385q77.4231-136.17,204.72-257.731,125.9677-120.3525,293.5345-213.707c129.2521-72.0892,231.1153-106.2132,306.48-103.1566,74.7725,3.0513,111.0453,44.9715,109.2353,125.8514q-1.2806,57.1947-24.2208,113.1544a589.0736,589.0736,0,0,1-55.5851,104.7415q-32.6859,48.8-84.7791,118.13-62.4537,82.5542-91.6442,131.2161-29.1993,48.71-30.2885,94.2425l-256.8157,152.3114q1.8478-74.9855,43.4586-147.6876M4308.7293,3043.97q-46.5851-9.3621-45.2453-64.4319,1.3642-55.0157,48.9194-119.9253,47.3568-64.6281,119.0734-107.5137,71.27-42.6525,115.7943-33.4936,44.4567,9.0609,43.1685,63.07-1.2666,54.0582-48.305,119.9067a396.4519,396.4519,0,0,1-116.8811,108.8058q-70.0662,42.8833-116.5242,33.5821"/><path class="cls-9" d="M5250.95,4404.9012q33.3135-58.2165,95.9721-141.1758,45.639-60.38,67.0925-95.8439,21.44-35.4149,22.133-65.0356.9927-42.1364-38.1935-43.9714-39.3688-1.8265-106.2362,36.0951a537.1712,537.1712,0,0,0-115.8775,88.0462,574.6779,574.6779,0,0,0-87.6906,112.5471l-170.1164,14.98q62.2448-109.4707,164.5881-207.201Q5183.89,4006.58,5318.61,3931.53c103.91-57.9586,185.8072-85.3935,246.3964-82.935,60.1142,2.4533,89.276,36.1552,87.8207,101.1781q-1.03,45.984-19.4728,90.9719a473.6878,473.6878,0,0,1-44.6871,84.2085q-26.2816,39.2307-68.1594,94.9724-50.208,66.3678-73.68,105.4922-23.4738,39.157-24.3491,75.7668L5216.01,4523.6375q1.4863-60.2847,34.94-118.7363m-30.9568,373.11q-37.4512-7.5274-36.3764-51.8,1.0949-44.2317,39.3294-96.4149,38.0724-51.9576,95.73-86.437,57.3008-34.29,93.0951-26.9271,35.7381,7.2861,34.7061,50.7056-1.0192,43.4593-38.8367,96.4a318.7044,318.7044,0,0,1-93.9674,87.4752q-56.3309,34.4748-93.68,26.9978"/></g><g class="cls-10"><path class="cls-11" d="M4266.0186,4136.1555q59.8151-108.4815,172.3087-263.0683,81.9431-112.52,120.4615-178.6,38.4883-65.99,39.7351-121.186,1.7828-78.5181-68.574-81.938-70.6806-3.3972-190.7366,67.2624a969.1308,969.1308,0,0,0-208.049,164.0648,1066.6375,1066.6375,0,0,0-157.439,209.7175l-305.429,27.9219q111.7566-203.9967,295.5038-386.1064,181.8253-180.3033,423.6983-320.1572c186.564-107.9959,333.5995-159.1168,442.3836-154.5386,107.9286,4.5716,160.2854,67.3748,157.6725,188.5409q-1.8479,85.6825-34.9609,169.5149a894.2853,894.2853,0,0,1-80.2331,156.9134q-47.1777,73.1044-122.3728,176.9706-90.1453,123.674-132.2835,196.5746-42.1468,72.9711-43.72,141.1847L4203.288,4357.4053q2.6687-112.3353,62.7306-221.25m-55.5793,695.2533q-67.24-14.0259-65.3094-96.5233,1.968-82.4234,70.61-179.6626,68.357-96.8169,171.8738-161.0644,102.8775-63.8994,167.1449-50.1769,64.1688,13.5754,62.3108,94.4831-1.8267,80.9891-69.7267,179.6357-68.2149,99.1353-168.71,162.9978-101.1352,64.2445-168.1937,50.3106"/></g><g class="cls-12"><rect class="cls-13" x="711.6302" y="314.3586" width="4632.8463" height="2549.2424"/></g><g class="cls-14"><rect class="cls-15" x="437.6925" y="42.5851" width="5180.3809" height="3092.7899"/></g><g class="cls-16"><path class="cls-11" d="M2624.786,967.5939q-58.3506-5.4514-118.13-39.06-78.3063-44.0386-74.9481-94.8114,3.392-50.8542,95.0649-104.8455l115.7182-68.1426-51.1607-29.176,136.6662-80.514,51.0355,29.2883L2905.79,505.688l152.71,88.1533-126.4043,74.3336,75.463,43.3043-135.9651,79.9019-75.65-43.14-113.7485,66.8909q-20.6,12.1131-23.3052,23.8855-2.7369,11.7706,11.523,19.8266,19.6386,11.1165,46.8665,12.2953Z"/><path class="cls-11" d="M3416.283,965.9519q-9.325,52.44-109.7484,111.1922l-254.359,148.8585L2901.7234,1141.35l223.15-130.7684q76.92-45.0736,32.3829-70.5092-25.3157-14.4473-62.7094-10.6392-37.4287,3.8073-84.1483,31.2143l-210.4549,123.44L2647.7373,998.449l610.4109-358.51,150.5013,87.12L3212.22,842.2716q86.2613-1.9375,146.5972,32.7545,66.8262,38.4093,57.4659,90.9258"/><path class="cls-11" d="M3681.8235,1375.6669,3434.3278,1235.236q-17.3342,19.1754-12.3837,37.3867,4.9212,18.1947,32.397,33.7453,23.52,13.3113,46.7962,18.1006,23.2634,4.7853,59.9806,5.0913l-19.57,99.5666q-123.201,12.1462-227.1657-46.3087-64.9405-36.5237-84.6867-81.619-19.758-45.1719,6.0681-91.3868,25.851-46.2588,91.8866-84.8826,66.8436-39.1021,146.1027-54.6769,79.1895-15.5514,154.6739-6.2441,75.3768,9.2931,132.6351,42.2126,53.9063,30.9846,71.46,72.114,17.5293,41.0541-8.182,86.2884-25.6831,45.1851-97.703,87.1562-4.0579,2.3647-44.814,23.8873m-97.9852-208.1542q-30.4911.4485-63.5211,14.4716l114.8066,65.4143q23.0244-18.6951,23.916-36.4817.8586-17.7979-21.9211-30.8187-22.8242-13.0421-53.28-12.5855"/><path class="cls-11" d="M2698.9737,1255.9517q-9.8387,51.3412-109.9187,109.966l-253.5128,148.5134-152.92-83.6449L2405.03,1300.32q76.6621-44.97,35.45-67.8534-21.6683-12.0175-54.4818-7.83-32.8326,4.1854-75.3157,29.1246L2092.815,1381.6624l-154.6071-84.5677,223.388-131.32q76.9986-45.2661,35.3307-68.4018-21.9078-12.1528-54.9529-7.97-33.0694,4.18-75.7381,29.283L1847.408,1247.4278l-156.3225-85.5063,450.0291-265.127,147.5465,82.4064-41.9238,24.6659q91.8215-6.2186,155.8934,29.5784,37.4014,20.8966,50.4756,47.4606,13.0452,26.5313-2.3515,57.2991,55.0854-6.7585,104.4628.6432,49.3076,7.4007,87.0422,28.4823,66.5814,37.2,56.7139,88.6213"/><path class="cls-11" d="M3241.6661,1511.4586l-599.0056,181.0038q-114.9441,34.8092-192.3764,31.85-77.518-2.9844-139.9563-36.8492-30.9336-16.79-51.3292-40.1845-20.413-23.424-20.82-43.7683l176.115-46.0026q.8944,12.4042,8.84,24.0974a60.3472,60.3472,0,0,0,21.3686,19.0061q24.7941,13.5456,55.3188,10.0884l295.9439-348.2786,154.5187,86.299L2787.7175,1529.327l313.3593-96.3875Z"/><path class="cls-11" d="M2871.1842,1802.8792q-32.73-31.5421-41.1214-57.9892l160.8162-47.5588q6.4275,24.5605,30.1124,49.4321a227.34,227.34,0,0,0,55.6939,42.4785q25.4954,14.0206,40.8312,16.5458,15.3231,2.5272,25.7663-3.5494,10.4252-6.0719,1.7283-15.4244-8.7159-9.3462-33.4371-27.53-37.4048-27.9033-58.151-50.7622-20.7825-22.8778-15.0816-52.6735,5.6936-29.8275,59.7505-61.3669,42.7694-24.9513,97.6579-33.0659,54.8439-8.1068,116.4967,3.276,61.546,11.3686,119.4052,43.6887,40.2227,22.4731,69.4891,49.3742,29.2158,26.8649,38.67,52.2674l-159.6966,47.296q-14.5808-44.5874-70.4566-75.6562-48.1962-26.7675-69.1357-14.5765-10.4715,6.1017-1.8428,15.9115,8.61,9.8114,32.6059,27.68,37.1408,27.9058,56.9076,50.7,19.7281,22.783,13.8714,52.2985-5.87,29.4878-59.5184,60.7-40.8291,23.75-95.2227,31.9008-54.4312,8.1506-116.1438-3.0256-61.7961-11.2054-121.3979-43.7723-45.93-25.112-78.5969-56.598"/><path class="cls-11" d="M3289.9344,2013.0691q-18.7608-42.7168,6.33-87.68,25.1285-45.006,90.8-83.2012,65.677-38.2005,144.151-53.407,78.3958-15.1925,154.4169-5.635,75.8985,9.5314,135.2511,42.7032,63.6852,35.5861,74.4483,80.6534,10.7535,44.9893-32.64,89.5679l-179.8148-21.9848q36.9749-44.6312-3.2379-66.9652-25.5878-14.2-64.9269-10.6263-39.3694,3.5816-80.1044,27.2424-41.53,24.12-46.8488,46.4861-5.3346,22.3431,20.3525,36.4706,40.3775,22.2283,118.1856.2207l43.16,101.1657q-77.581,25.5518-157.0749,20.5171-79.63-5.05-143.8449-40.1522-59.8581-32.727-78.6023-75.3758"/><path class="cls-11" d="M3620.3987,2193.5637q5.09-29.8407,50.345-56.0725a218.4076,218.4076,0,0,1,97.2629-29.4493q51.95-3.2094,88.0166,16.698,36.0154,19.8854,31.5221,49.2219-4.476,29.3108-49.5931,55.4112a224.0966,224.0966,0,0,1-97.68,29.828q-52.6265,3.737-88.7633-16.0327-36.1926-19.7878-31.1107-49.6046"/><path class="cls-11" d="M1718.0038,1534.8341q13.4991,38.8744-14.538,82.7337-28.0148,43.8045-96.9475,84.2682a519.2911,519.2911,0,0,1-146.0279,58.3661q-77.1783,17.9347-146.97,12.2117-69.906-5.734-119.9322-32.1525-70.33-37.1487-59.8249-81.56l-36.6079,21.5394-150.7008-79.6338,606.7815-357.4737,156.7051,85.17-189.5533,111.52q71.6121-4.6394,134.47,29.2861,49.6347,26.7886,63.146,65.7239M1366.665,1646.2868q40.4835-4.4,81.9543-28.7605,41.4782-24.3788,46.9753-47.0244,5.4786-22.6576-21.5008-37.1426-27.0309-14.4911-67.21-10.3653-40.2069,4.131-81.7679,28.5889-41.5571,24.451-47.3632,47.3739-5.8131,22.9,21.3162,37.3216,27.09,14.4042,67.5959,10.0084"/><path class="cls-11" d="M1541.0859,1890.9776q-20.2524-43.6007,3.7723-89.149,24.041-45.6039,90.499-84.5942,66.4626-39,146.86-54.6451a508.0417,508.0417,0,0,1,158.9119-6.1255q78.459,9.4823,140.1143,42.7664,62.2041,33.5724,81.9981,76.9448,19.7659,43.2934-4.979,88.3174-24.7065,44.9788-90.6711,83.5291-65.94,38.5486-145.0968,54.3257a509.9092,509.9092,0,0,1-157.707,6.9593q-78.6327-8.8519-141.3245-41.9728-62.1578-32.8333-82.3767-76.3561m290.7681,2.946q39.9367-4.4217,81.0683-28.4855,41.1384-24.0814,46.8015-46.3754,5.647-22.3047-20.78-36.4923-26.4735-14.1918-66.11-10.0394-39.66,4.1556-80.88,28.3156-41.2173,24.15-47.189,46.7161-5.9788,22.5435,20.5932,36.67,26.5365,14.11,66.4963,9.6913"/><polygon class="cls-11" points="2116.771 2219.036 2160.228 2137.945 2010.368 2162.81 1845.41 2075.641 2202.067 2022.511 2289.384 1820.625 2459.665 1912.491 2418.428 1994.745 2565.84 1969.772 2722.176 2054.115 2376.676 2106.799 2289.011 2310.054 2116.771 2219.036"/></g></svg>