<svg width="80" height="80" viewBox="0 0 80 80" fill="none" xmlns="http://www.w3.org/2000/svg">
<g filter="url(#filter0_d_37_1828)">
<path d="M13.6905 27.2232C14.5577 22.3381 16.8275 17.8108 20.2232 14.1934C21.6704 12.6331 23.309 11.2618 25.1 10.1123C28.3966 7.97527 32.1422 6.62822 36.0448 6.17607C36.5295 6.1498 37.0122 6.09529 37.4906 6.01282H40.9012C40.9381 6.09889 41.0172 6.0675 41.0799 6.07337C41.9582 6.15081 42.8322 6.25074 43.699 6.41505C49.8584 7.50511 55.3994 10.8284 59.2615 15.7488C62.5216 19.7835 64.4532 24.7283 64.7912 29.9045C64.9832 32.4521 64.796 35.0141 64.2358 37.5067C63.8217 39.3675 63.1918 41.1735 62.359 42.8882C62.2854 43.0347 62.2129 43.1811 62.138 43.3273C60.7851 46.0235 58.9707 48.462 56.7772 50.5328C52.0895 54.9666 45.9028 57.4705 39.4508 57.5451C39.1498 57.5493 39.0677 57.6235 39.0695 57.9314C39.0833 60.5576 39.0775 63.1842 39.0767 65.8107C39.0765 65.9127 39.0686 66.0144 39.0628 66.141C38.9778 66.1065 38.9246 66.0869 38.8733 66.0627C33.9518 63.7841 29.401 60.7782 25.3737 57.1458C24.5709 56.415 23.8004 55.6509 23.062 54.8536C22.7455 54.5128 22.4315 54.166 22.1143 53.8256C21.6242 53.3016 21.2001 52.716 20.7381 52.1642C20.2044 51.5277 19.7255 50.8512 19.2529 50.1702C18.2034 48.6713 17.2798 47.0881 16.4914 45.4369C16.0947 44.5985 15.7171 43.7535 15.3828 42.8887C15.3701 42.8737 15.3589 42.8575 15.3495 42.8402C14.4501 40.479 13.8437 38.0164 13.544 35.5076C13.4355 34.6319 13.3652 33.7508 13.3208 32.8702C13.2253 30.9799 13.3493 29.0849 13.6905 27.2232V27.2232ZM41.3192 35.6993C41.3167 36.7652 41.5405 37.8195 41.9759 38.7924C42.4112 39.7654 43.0482 40.6348 43.8446 41.3433C43.9301 41.4226 44.013 41.5053 44.0964 41.5864C44.9279 42.2482 45.8819 42.7393 46.9037 43.0314C47.3467 43.1433 47.796 43.2286 48.2493 43.2867C48.4026 43.31 48.5591 43.2763 48.6892 43.192C48.8194 43.1077 48.9141 42.9786 48.9555 42.8292L48.952 39.9186C48.935 39.633 49.05 39.327 48.8212 39.0751C48.7125 38.9494 48.5673 38.8608 48.4058 38.8215C47.8884 38.7268 47.3878 38.5562 46.9202 38.315C46.5133 38.08 46.1594 37.7632 45.881 37.3846C45.6026 37.006 45.4056 36.5738 45.3026 36.1153C45.266 35.9646 45.231 35.813 45.1961 35.6617C47.2421 35.6579 49.2879 35.6545 51.3334 35.6516C51.5097 35.6572 51.686 35.639 51.8574 35.5975C52.115 35.5289 52.3437 35.3792 52.5097 35.1706C52.6757 34.962 52.7701 34.7055 52.779 34.439C52.7828 31.3457 52.7813 28.2521 52.7744 25.1582C52.8232 24.9224 52.8106 24.678 52.7378 24.4484C52.6649 24.2189 52.5343 24.0119 52.3584 23.8474C52.148 23.654 51.8737 23.5448 51.5879 23.5406C48.5798 23.5401 45.5716 23.5395 42.5633 23.539C42.3708 23.5398 42.1811 23.5849 42.009 23.671C41.8368 23.757 41.6868 23.8817 41.5706 24.0351C41.4545 24.1886 41.3753 24.3669 41.3393 24.5559C41.3032 24.745 41.3113 24.9399 41.3629 25.1253C41.3157 25.2738 41.2987 25.4302 41.313 25.5853C41.3122 28.9561 41.2934 32.3284 41.3192 35.6993V35.6993ZM25.3759 35.7143C25.3907 37.2096 25.8413 38.6681 26.6724 39.9112C27.5036 41.1542 28.6793 42.1279 30.0555 42.7129C30.1257 42.743 30.1927 42.7819 30.2613 42.8164L30.376 42.8485L30.441 42.8854C31.0219 43.0536 31.6132 43.1835 32.2112 43.2742C32.309 43.2994 32.4113 43.3013 32.51 43.28C32.6087 43.2586 32.701 43.2145 32.7797 43.1512C32.8583 43.0879 32.9211 43.0071 32.963 42.9152C33.0049 42.8233 33.0248 42.723 33.0211 42.6221C33.0257 42.2993 33.0281 41.9757 33.0307 41.6526L33.014 39.9171C33.0166 39.7892 33.0211 39.6625 33.0208 39.5353C33.0202 39.0909 32.8494 38.9034 32.2969 38.7773C31.5931 38.6567 30.935 38.3483 30.392 37.8846C29.7739 37.2924 29.3739 36.5089 29.2569 35.661L34.9264 35.6501C35.1319 35.6498 35.3376 35.6527 35.5435 35.6492C35.7177 35.655 35.8912 35.6246 36.053 35.5599C36.2149 35.4953 36.3615 35.3977 36.4837 35.2734C36.6059 35.1491 36.701 35.0008 36.7629 34.8379C36.8249 34.675 36.8523 34.501 36.8436 34.3269C36.8426 31.2715 36.8402 28.2162 36.8364 25.1611L36.8415 25.0728C36.89 24.811 36.8572 24.5406 36.7477 24.2979C36.6382 24.0552 36.4571 23.8518 36.2287 23.715C36.0369 23.5964 35.8149 23.5357 35.5895 23.5402C32.6013 23.5385 29.613 23.5377 26.6248 23.5376C26.4323 23.5385 26.2427 23.5837 26.0705 23.6698C25.8984 23.7559 25.7485 23.8806 25.6324 24.0341C25.5163 24.1876 25.4371 24.3658 25.4011 24.5548C25.3651 24.7439 25.3732 24.9387 25.4247 25.1241C25.3779 25.2725 25.361 25.4288 25.375 25.5838C25.375 28.9606 25.3753 32.3374 25.3759 35.7143Z" fill="white"/>
<path d="M38.0279 67.8752C38.1018 67.9098 38.1659 67.9361 38.2065 67.9525L38.264 67.9755L38.3104 67.9941L40.9292 69.0574L41.0606 66.234C41.061 66.226 41.0617 66.2127 41.0627 66.1953C41.0671 66.1148 41.0765 65.9465 41.0767 65.8143L41.0767 65.8113C41.0769 65.2704 41.0772 64.7289 41.0776 64.187C41.0787 62.6207 41.0798 61.0506 41.0756 59.48C47.4463 59.0364 53.4863 56.3977 58.1501 51.9871L38.0279 67.8752ZM38.0279 67.8752C32.9264 65.5127 28.2091 62.3964 24.0342 58.631L24.0273 58.6248C23.1832 57.8563 22.373 57.0529 21.5967 56.2148L38.0279 67.8752ZM20.6528 55.1909C20.8367 55.3883 20.9818 55.5466 21.1319 55.7103C21.2708 55.8618 21.4138 56.0179 21.5957 56.2136L20.6528 55.1909ZM20.6528 55.1909C20.2908 54.8037 19.8938 54.3062 19.5753 53.9069C19.4326 53.728 19.3057 53.5689 19.2047 53.4483C18.6084 52.7369 18.0854 51.9957 17.6119 51.3135C16.5002 49.7253 15.5218 48.048 14.6866 46.2986L14.6836 46.2923C14.3002 45.4819 13.9242 44.6449 13.583 43.7781L13.5287 43.6787L13.4806 43.5522C12.5234 41.0394 11.8779 38.4187 11.5586 35.7488C11.4434 34.8176 11.3696 33.8886 11.3234 32.9712L20.6528 55.1909ZM31.8528 40.7233C31.8436 40.7196 31.833 40.7151 31.821 40.7097C31.7427 40.6744 31.5797 40.5876 31.4131 40.4115C31.2589 40.2486 31.1653 40.0803 31.1085 39.9355C31.1009 39.9159 31.0939 39.8968 31.0875 39.8782C31.0256 39.6978 31.0211 39.564 31.0208 39.541C31.0208 39.5393 31.0208 39.5382 31.0208 39.5377L31.8528 40.7233ZM31.8528 40.7233L32.0346 39.9266L32.0412 39.8975L32.1233 39.5379L32.1236 39.5364L32.2969 38.7773L31.8528 40.7233ZM18.7608 12.829C20.3206 11.148 22.0863 9.67048 24.016 8.43148C27.5701 6.12848 31.6077 4.67676 35.8146 4.18936L35.8754 4.18231L35.9366 4.179C36.3436 4.15694 36.749 4.11116 37.1508 4.0419L37.3194 4.01282H37.4906H40.9012H42.2204L42.2943 4.18525C42.8738 4.25166 43.4643 4.33534 44.0594 4.44775C50.6941 5.62494 56.6628 9.20444 60.826 14.5028C64.3381 18.854 66.4199 24.1843 66.7863 29.7642C66.9918 32.5051 66.7901 35.2613 66.1876 37.9431C65.7397 39.9551 65.0585 41.9079 64.158 43.762L64.1521 43.7742L64.146 43.7863C64.1267 43.8247 64.106 43.866 64.0845 43.9091C64.0332 44.0115 63.9769 44.1241 63.922 44.2315C62.465 47.1328 60.5121 49.757 58.1515 51.9858L18.7608 12.829ZM40.9389 4.07565L40.9589 4.07477C40.9345 4.07535 40.9256 4.07626 40.9389 4.07565ZM45.1739 39.8489L45.1893 39.8627L45.2044 39.8767C45.2777 39.9446 45.3557 40.0205 45.4166 40.0801C45.8848 40.441 46.4026 40.731 46.9533 40.9417L46.9527 40.5003C46.6276 40.387 46.3103 40.2508 46.0035 40.0925L45.9612 40.0707L45.92 40.0469C45.2738 39.6737 44.7119 39.1706 44.2698 38.5695C43.9146 38.0865 43.6429 37.5486 43.465 36.9783C43.5449 37.3197 43.6574 37.6537 43.8015 37.9756C44.1212 38.6901 44.589 39.3287 45.1739 39.8489ZM41.3193 35.6993L43.1535 35.7036L43.1493 35.6852L41.3193 35.6993ZM43.3085 33.6651L45.1924 33.6617C47.0551 33.6582 48.9176 33.6551 50.7798 33.6524C50.7824 30.9486 50.7809 28.2446 50.7752 25.5405L43.33 25.5391L43.313 25.5926C43.3128 26.5691 43.311 27.543 43.3093 28.5151C43.3063 30.2354 43.3032 31.9503 43.3085 33.6651ZM30.8379 40.8723L30.842 40.8741C30.9003 40.899 30.953 40.9239 30.9967 40.9454L31.0239 40.953L31.0196 40.5075C30.3168 40.2649 29.6629 39.892 29.0932 39.4055L29.0497 39.3683L29.0084 39.3288C28.3692 38.7164 27.8829 37.97 27.5801 37.1498C27.741 37.7335 27.9949 38.2909 28.335 38.7995C28.9499 39.7192 29.8197 40.4395 30.8379 40.8723ZM27.3756 33.6645L29.2531 33.661L34.8433 33.6503C34.8423 30.9467 34.8402 28.2432 34.8369 25.5398C32.355 25.5385 29.8732 25.5378 27.3914 25.5376L27.375 25.5896C27.375 28.2812 27.3752 30.9729 27.3756 33.6645Z" stroke="#725B4C" stroke-width="4"/>
</g>
<defs>
<filter id="filter0_d_37_1828" x="9.28961" y="2.01282" width="63.5746" height="73.9609" filterUnits="userSpaceOnUse" color-interpolation-filters="sRGB">
<feFlood flood-opacity="0" result="BackgroundImageFix"/>
<feColorMatrix in="SourceAlpha" type="matrix" values="0 0 0 0 0 0 0 0 0 0 0 0 0 0 0 0 0 0 127 0" result="hardAlpha"/>
<feOffset dx="4" dy="4"/>
<feComposite in2="hardAlpha" operator="out"/>
<feColorMatrix type="matrix" values="0 0 0 0 0.447059 0 0 0 0 0.356863 0 0 0 0 0.298039 0 0 0 1 0"/>
<feBlend mode="normal" in2="BackgroundImageFix" result="effect1_dropShadow_37_1828"/>
<feBlend mode="normal" in="SourceGraphic" in2="effect1_dropShadow_37_1828" result="shape"/>
</filter>
</defs>
</svg>
