<svg id="e5f7c463-85b3-4e2c-babf-2f927ce016db" data-name="Layer 2" xmlns="http://www.w3.org/2000/svg" xmlns:xlink="http://www.w3.org/1999/xlink" viewBox="0 0 194 194"><defs><style>.bc16f4c8-22be-41c7-808e-5a5dd7180983{isolation:isolate;}.e57e2d9e-9d7a-42bc-9192-7247ec040787{fill:url(#f0468e4f-de96-4494-a1e1-e9e3944071a1);}.b0edfd28-8f65-44ab-b825-64547b2d8075{fill:url(#bc323b7f-d31e-44f0-bd86-aea65676213c);}.a3a8aec8-eb98-4f75-a5ce-d369d7cbde1f{fill:url(#a01b3cad-80b5-48a0-8d57-c32180e5894d);}.beaa9d8e-46c2-43df-ae29-b6b6cc63aa07{fill:url(#ecf208ed-f9d4-4e72-b8f5-960ebb0d28f5);}.a42cea32-2181-41c0-b14b-975c23990c25{fill:#ffe029;}.b4dcedb8-1427-4973-b1dc-e39059af679b{fill:url(#ef4323e7-8042-477c-b193-cc7160167a0c);}.bb84b4e6-6608-4bd0-aa99-f0fb1c76be00{fill:url(#e832f3a4-42bb-4f2f-b243-aef66daa0a8e);}.b87ad703-976f-43d8-9d97-3873d062a787{fill:url(#bf9062f7-e041-40c6-9da9-b1492db3b41c);}.b331d080-a231-4404-be89-eaddb965646d{fill:url(#f8ff661d-58d5-4112-86a7-45fd1915f6d8);}.b1c1718d-f99f-4a53-9325-891c25d6ec16{fill:url(#a4ecba9b-7913-4cbb-a4e2-2d9369a939a9);}.a0768e92-7774-4d48-b177-889547cfbd32{fill:url(#aa733c02-8a71-4113-b39a-04d8779dad04);}.f69abc1a-a2a4-4467-870f-5025953551a2{fill:url(#aac55524-4fec-4cd9-bdce-4e974425464d);}.a453aeec-7b10-45ff-ae74-8dbedf157c90{fill:url(#b6d5107f-8c9a-45a2-a5b3-271c281cb4ce);}.b676dac6-18c7-4700-b120-185cb988cb01{fill:url(#e4ae5285-5c49-4967-9fd3-1b9c6798cfc5);}.bab22217-1568-4ae4-adeb-0f6b05dbb8e3{fill:url(#e15c61fc-88d7-4906-bad9-eb20509d1a50);}.ab1ea027-340b-47bb-b005-bea15b69e4b0{fill:url(#eb594c9b-5886-4942-9b30-b143128b3617);}.e6152589-41e7-44c5-8b2f-8f8964821cbe{fill:url(#b078ca5f-8882-4d92-b65e-b104b419f261);}.e5c7c425-274d-4b06-b9a1-fa38865b402d{fill:url(#f1496236-3084-4c94-83ed-3f29d5e3643b);}.a2d96869-6bb8-46b2-af30-4a2ab9627762{fill:url(#aab0490f-981b-4ac4-beaf-2dea54b0c335);}.af5c9883-89d9-4ba8-8f05-0a6412ed7524{fill:url(#e551c224-c457-4c1d-86e7-307440cb922c);}.ecbaf3a0-a938-4e70-8488-9ab5ffe365b7{fill:url(#f69f3785-5c18-40b2-95fb-1a9fc1851265);}.eb37eb2b-cd7c-4f26-a3a5-a51754ea43d7{fill:url(#ea0276f1-d144-4226-bdb4-eed0b1db77a8);}.a0aef032-4c99-46bb-939b-c121c76b8b91{fill:url(#ea17bbf5-1be8-496b-a4f3-ff8b5866427d);}.bd27edf1-cd37-42dd-8170-697063a6cc35{fill:url(#e4e5fbd2-5e67-4203-a19d-67001c96f86c);}.a1fb2c71-9c1d-4fa0-b482-517d7ba48405{fill:url(#a916506f-6e52-4583-a041-2a92af019c63);}</style><linearGradient id="f0468e4f-de96-4494-a1e1-e9e3944071a1" x1="96.28" y1="96.09" x2="111.77" y2="96.09" gradientUnits="userSpaceOnUse"><stop offset="0" stop-color="#eda826"/><stop offset="0.33" stop-color="#efae2c"/><stop offset="0.77" stop-color="#f3bf3d"/><stop offset="1" stop-color="#f6cb49"/></linearGradient><linearGradient id="bc323b7f-d31e-44f0-bd86-aea65676213c" x1="80.79" y1="96.09" x2="96.28" y2="96.09" xlink:href="#f0468e4f-de96-4494-a1e1-e9e3944071a1"/><linearGradient id="a01b3cad-80b5-48a0-8d57-c32180e5894d" x1="85.91" y1="102.24" x2="96.28" y2="102.24" gradientUnits="userSpaceOnUse"><stop offset="0" stop-color="#f2ba38"/><stop offset="1" stop-color="#eda826"/></linearGradient><linearGradient id="ecf208ed-f9d4-4e72-b8f5-960ebb0d28f5" x1="96.27" y1="102.24" x2="106.64" y2="102.24" xlink:href="#a01b3cad-80b5-48a0-8d57-c32180e5894d"/><linearGradient id="ef4323e7-8042-477c-b193-cc7160167a0c" x1="110.46" y1="108.88" x2="158.56" y2="108.88" xlink:href="#a01b3cad-80b5-48a0-8d57-c32180e5894d"/><linearGradient id="e832f3a4-42bb-4f2f-b243-aef66daa0a8e" x1="110.46" y1="108.29" x2="136.64" y2="108.29" xlink:href="#a01b3cad-80b5-48a0-8d57-c32180e5894d"/><linearGradient id="bf9062f7-e041-40c6-9da9-b1492db3b41c" x1="110.46" y1="114.32" x2="154.32" y2="114.32" xlink:href="#f0468e4f-de96-4494-a1e1-e9e3944071a1"/><linearGradient id="f8ff661d-58d5-4112-86a7-45fd1915f6d8" x1="110.46" y1="111.7" x2="136.64" y2="111.7" xlink:href="#f0468e4f-de96-4494-a1e1-e9e3944071a1"/><linearGradient id="a4ecba9b-7913-4cbb-a4e2-2d9369a939a9" x1="110.46" y1="114.32" x2="144.54" y2="114.32" xlink:href="#a01b3cad-80b5-48a0-8d57-c32180e5894d"/><linearGradient id="aa733c02-8a71-4113-b39a-04d8779dad04" x1="32.55" y1="108.88" x2="80.65" y2="108.88" xlink:href="#a01b3cad-80b5-48a0-8d57-c32180e5894d"/><linearGradient id="aac55524-4fec-4cd9-bdce-4e974425464d" x1="54.47" y1="108.29" x2="80.65" y2="108.29" xlink:href="#a01b3cad-80b5-48a0-8d57-c32180e5894d"/><linearGradient id="b6d5107f-8c9a-45a2-a5b3-271c281cb4ce" x1="36.79" y1="114.32" x2="80.65" y2="114.32" xlink:href="#f0468e4f-de96-4494-a1e1-e9e3944071a1"/><linearGradient id="e4ae5285-5c49-4967-9fd3-1b9c6798cfc5" x1="54.47" y1="111.7" x2="80.65" y2="111.7" xlink:href="#f0468e4f-de96-4494-a1e1-e9e3944071a1"/><linearGradient id="e15c61fc-88d7-4906-bad9-eb20509d1a50" x1="46.57" y1="114.32" x2="80.65" y2="114.32" xlink:href="#a01b3cad-80b5-48a0-8d57-c32180e5894d"/><linearGradient id="eb594c9b-5886-4942-9b30-b143128b3617" x1="127.73" y1="125.53" x2="175.8" y2="125.53" xlink:href="#f0468e4f-de96-4494-a1e1-e9e3944071a1"/><linearGradient id="b078ca5f-8882-4d92-b65e-b104b419f261" x1="127.73" y1="134.72" x2="184.25" y2="134.72" xlink:href="#f0468e4f-de96-4494-a1e1-e9e3944071a1"/><linearGradient id="f1496236-3084-4c94-83ed-3f29d5e3643b" x1="127.73" y1="129.28" x2="170.77" y2="129.28" xlink:href="#a01b3cad-80b5-48a0-8d57-c32180e5894d"/><linearGradient id="aab0490f-981b-4ac4-beaf-2dea54b0c335" x1="127.73" y1="132.38" x2="170.77" y2="132.38" xlink:href="#f0468e4f-de96-4494-a1e1-e9e3944071a1"/><linearGradient id="e551c224-c457-4c1d-86e7-307440cb922c" x1="127.73" y1="134.72" x2="176.89" y2="134.72" xlink:href="#a01b3cad-80b5-48a0-8d57-c32180e5894d"/><linearGradient id="f69f3785-5c18-40b2-95fb-1a9fc1851265" x1="18.19" y1="125.53" x2="66.27" y2="125.53" xlink:href="#f0468e4f-de96-4494-a1e1-e9e3944071a1"/><linearGradient id="ea0276f1-d144-4226-bdb4-eed0b1db77a8" x1="9.75" y1="134.72" x2="66.27" y2="134.72" gradientUnits="userSpaceOnUse"><stop offset="0" stop-color="#f6cb49"/><stop offset="0.23" stop-color="#f3bf3d"/><stop offset="0.67" stop-color="#efae2c"/><stop offset="1" stop-color="#eda826"/></linearGradient><linearGradient id="ea17bbf5-1be8-496b-a4f3-ff8b5866427d" x1="23.22" y1="129.28" x2="66.27" y2="129.28" xlink:href="#a01b3cad-80b5-48a0-8d57-c32180e5894d"/><linearGradient id="e4e5fbd2-5e67-4203-a19d-67001c96f86c" x1="23.22" y1="132.38" x2="66.27" y2="132.38" xlink:href="#f0468e4f-de96-4494-a1e1-e9e3944071a1"/><linearGradient id="a916506f-6e52-4583-a041-2a92af019c63" x1="17.11" y1="134.72" x2="66.27" y2="134.72" xlink:href="#a01b3cad-80b5-48a0-8d57-c32180e5894d"/></defs><g class="bc16f4c8-22be-41c7-808e-5a5dd7180983"><polygon class="e57e2d9e-9d7a-42bc-9192-7247ec040787" points="111.77 57.64 96.28 134.53 96.28 134.53 104.27 64.52 111.77 57.64"/><polygon class="b0edfd28-8f65-44ab-b825-64547b2d8075" points="88.28 64.52 96.28 134.53 96.28 134.53 80.79 57.64 88.28 64.52"/><polygon class="a3a8aec8-eb98-4f75-a5ce-d369d7cbde1f" points="96.27 69.94 96.28 134.53 96.28 134.53 85.91 75.03 96.27 69.94"/><polygon class="beaa9d8e-46c2-43df-ae29-b6b6cc63aa07" points="106.64 75.03 96.28 134.53 96.28 134.53 96.27 69.94 106.64 75.03"/><polygon class="a42cea32-2181-41c0-b14b-975c23990c25" points="96.27 48.15 101.03 56.27 111.77 57.64 104.27 64.52 106.64 75.03 96.27 69.94 85.91 75.03 88.28 64.52 80.79 57.64 91.52 56.27 96.27 48.15"/><polygon class="a42cea32-2181-41c0-b14b-975c23990c25" points="85.91 114.03 87.53 116.8 91.19 117.26 88.64 119.61 89.44 123.19 85.91 121.46 82.38 123.19 83.19 119.61 80.63 117.26 84.29 116.8 85.91 114.03"/></g><g class="bc16f4c8-22be-41c7-808e-5a5dd7180983"><polygon class="b4dcedb8-1427-4973-b1dc-e39059af679b" points="158.56 76.43 110.46 141.32 110.46 141.32 151.77 82.59 158.56 76.43"/><polygon class="bb84b4e6-6608-4bd0-aa99-f0fb1c76be00" points="136.64 82.07 110.46 141.32 110.46 141.32 128.82 75.25 136.64 82.07"/><polygon class="b87ad703-976f-43d8-9d97-3873d062a787" points="154.32 92.14 110.46 141.32 110.46 141.32 144.54 87.32 154.32 92.14"/><polygon class="b331d080-a231-4404-be89-eaddb965646d" points="135.13 91.65 110.46 141.32 110.46 141.32 136.64 82.07 135.13 91.65"/><polygon class="b1c1718d-f99f-4a53-9325-891c25d6ec16" points="144.54 87.32 110.46 141.32 110.46 141.32 135.13 91.65 144.54 87.32"/><polygon class="a42cea32-2181-41c0-b14b-975c23990c25" points="143.35 66.61 148.36 74.73 158.56 76.43 151.77 82.59 154.32 92.14 144.54 87.32 135.13 91.65 136.64 82.07 128.82 75.25 139.21 74.36 143.35 66.61"/></g><g class="bc16f4c8-22be-41c7-808e-5a5dd7180983"><polygon class="a0768e92-7774-4d48-b177-889547cfbd32" points="32.55 76.43 80.65 141.32 80.65 141.32 39.34 82.59 32.55 76.43"/><polygon class="f69abc1a-a2a4-4467-870f-5025953551a2" points="54.47 82.07 80.65 141.32 80.65 141.32 62.29 75.25 54.47 82.07"/><polygon class="a453aeec-7b10-45ff-ae74-8dbedf157c90" points="36.79 92.15 80.65 141.32 80.65 141.32 46.57 87.32 36.79 92.15"/><polygon class="b676dac6-18c7-4700-b120-185cb988cb01" points="55.98 91.65 80.65 141.32 80.65 141.32 54.47 82.07 55.98 91.65"/><polygon class="bab22217-1568-4ae4-adeb-0f6b05dbb8e3" points="46.57 87.32 80.65 141.32 80.65 141.32 55.98 91.65 46.57 87.32"/><polygon class="a42cea32-2181-41c0-b14b-975c23990c25" points="47.76 66.61 42.75 74.73 32.55 76.43 39.34 82.59 36.79 92.15 46.57 87.32 55.98 91.65 54.47 82.07 62.29 75.25 51.9 74.36 47.76 66.61"/></g><g class="bc16f4c8-22be-41c7-808e-5a5dd7180983"><polygon class="ab1ea027-340b-47bb-b005-bea15b69e4b0" points="172.67 109.21 127.73 148.74 127.73 148.74 175.8 102.32 172.67 109.21"/><polygon class="e6152589-41e7-44c5-8b2f-8f8964821cbe" points="184.25 124.88 127.73 148.74 127.73 148.74 176.89 120.69 184.25 124.88"/><polygon class="e5c7c425-274d-4b06-b9a1-fa38865b402d" points="170.77 116.03 127.73 148.74 127.73 148.74 164.54 109.83 170.77 116.03"/><polygon class="a2d96869-6bb8-46b2-af30-4a2ab9627762" points="169.75 124.39 127.73 148.74 127.73 148.74 170.77 116.03 169.75 124.39"/><polygon class="af5c9883-89d9-4ba8-8f05-0a6412ed7524" points="176.89 120.69 127.73 148.74 127.73 148.74 169.75 124.39 176.89 120.69"/><polygon class="a42cea32-2181-41c0-b14b-975c23990c25" points="175.8 102.32 179.72 109.7 187.43 111.37 182.34 116.65 184.25 124.88 176.89 120.69 169.75 124.39 170.77 116.03 164.54 109.83 172.67 109.21 175.8 102.32"/></g><g class="bc16f4c8-22be-41c7-808e-5a5dd7180983"><polygon class="ecbaf3a0-a938-4e70-8488-9ab5ffe365b7" points="21.33 109.21 66.27 148.74 66.27 148.74 18.2 102.32 21.33 109.21"/><polygon class="eb37eb2b-cd7c-4f26-a3a5-a51754ea43d7" points="9.75 124.88 66.27 148.74 66.27 148.74 17.11 120.69 9.75 124.88"/><polygon class="a0aef032-4c99-46bb-939b-c121c76b8b91" points="23.23 116.03 66.27 148.74 66.27 148.74 29.46 109.83 23.23 116.03"/><polygon class="bd27edf1-cd37-42dd-8170-697063a6cc35" points="24.25 124.39 66.27 148.74 66.27 148.74 23.23 116.03 24.25 124.39"/><polygon class="a1fb2c71-9c1d-4fa0-b482-517d7ba48405" points="17.11 120.69 66.27 148.74 66.27 148.74 24.25 124.39 17.11 120.69"/><polygon class="a42cea32-2181-41c0-b14b-975c23990c25" points="18.2 102.32 14.28 109.7 6.57 111.37 11.66 116.65 9.75 124.88 17.11 120.69 24.25 124.39 23.23 116.03 29.46 109.83 21.33 109.21 18.2 102.32"/></g><polygon class="a42cea32-2181-41c0-b14b-975c23990c25" points="18.27 72.07 16.75 74.92 13.77 75.57 15.74 77.61 15 80.79 17.85 79.17 20.61 80.6 20.21 77.37 22.62 74.97 19.48 74.73 18.27 72.07"/><polygon class="a42cea32-2181-41c0-b14b-975c23990c25" points="68.57 54.06 67.1 56.95 64.09 57.55 66.09 59.75 65.34 63.16 68.22 61.44 71 62.98 70.56 59.56 72.86 57.13 69.8 56.81 68.57 54.06"/><polygon class="a42cea32-2181-41c0-b14b-975c23990c25" points="51.48 115.81 50.38 117.59 48.15 117.96 49.64 119.31 49.08 121.41 51.22 120.35 53.29 121.3 52.95 119.2 54.67 117.7 52.39 117.51 51.48 115.81"/><polygon class="a42cea32-2181-41c0-b14b-975c23990c25" points="158.49 97.96 160.01 100.81 162.98 101.46 161.02 103.5 161.75 106.68 158.91 105.06 156.15 106.49 156.55 103.26 154.14 100.86 157.28 100.62 158.49 97.96"/><polygon class="a42cea32-2181-41c0-b14b-975c23990c25" points="123.45 48.15 124.93 51.04 127.94 51.65 125.93 53.84 126.69 57.25 123.8 55.53 121.02 57.07 121.47 53.66 119.16 51.23 122.23 50.91 123.45 48.15"/><polygon class="a42cea32-2181-41c0-b14b-975c23990c25" points="113.65 113.01 114.74 114.79 116.98 115.16 115.49 116.51 116.05 118.61 113.91 117.55 111.84 118.5 112.17 116.4 110.46 114.91 112.74 114.71 113.65 113.01"/></svg>