<svg width="232" height="230" viewBox="0 0 232 230" fill="none" xmlns="http://www.w3.org/2000/svg">
<path d="M93.0436 213.034C93.7782 212.59 94.7026 212.507 95.8171 212.782C96.9315 213.058 97.7104 213.563 98.1538 214.297C98.5949 215.041 98.6709 215.997 98.382 217.166L96.9069 223.132C96.8688 223.286 96.782 223.404 96.6464 223.486C96.5108 223.568 96.3705 223.591 96.2255 223.555C96.0715 223.517 95.9535 223.43 95.8717 223.294C95.7898 223.159 95.768 223.014 95.806 222.86L97.2912 216.853C97.5085 215.974 97.4784 215.279 97.2009 214.768C96.9143 214.255 96.3723 213.9 95.575 213.703C94.7777 213.506 94.1327 213.567 93.6401 213.888C93.1474 214.208 92.7925 214.808 92.5752 215.687L91.0833 221.721C91.0452 221.875 90.964 221.99 90.8397 222.065C90.7064 222.138 90.5672 222.156 90.4222 222.12C90.2773 222.084 90.1673 222.004 90.0922 221.88C90.0081 221.753 89.9851 221.613 90.0232 221.459L91.505 215.466C91.794 214.297 92.3068 213.486 93.0436 213.034Z" fill="#725B4C"/>
<path d="M78.7343 207.919C78.8599 207.981 78.9293 208.083 78.9425 208.224C78.9474 208.362 78.8937 208.471 78.7814 208.551L74.3696 211.416C74.2864 211.458 74.2554 211.521 74.2767 211.604L74.6723 216.686C74.6731 216.833 74.6173 216.946 74.505 217.025C74.3927 217.105 74.2738 217.114 74.1483 217.052C73.9641 216.961 73.8153 216.831 73.7017 216.66C73.584 216.498 73.5225 216.317 73.5173 216.116L73.2826 211.879L73.27 211.873L73.2449 211.86L69.7198 214.258C69.3662 214.489 69.0053 214.514 68.637 214.332C68.5115 214.27 68.4463 214.17 68.4414 214.033C68.4281 213.891 68.4818 213.782 68.6025 213.706L72.8957 210.923C72.9665 210.885 72.9975 210.822 72.9887 210.735L72.586 205.509C72.5685 205.354 72.6201 205.239 72.7408 205.164C72.8614 205.088 72.9887 205.083 73.1226 205.149C73.2984 205.236 73.443 205.364 73.5566 205.535C73.6702 205.706 73.7338 205.893 73.7474 206.097L73.9828 210.46C73.9786 210.469 73.9807 210.475 73.9891 210.479C74.0059 210.487 74.0163 210.487 74.0204 210.479L77.6328 208C77.9821 207.756 78.3493 207.729 78.7343 207.919Z" fill="#725B4C"/>
<path d="M60.3934 197.187C60.499 197.264 60.548 197.363 60.5403 197.485C60.5326 197.606 60.4742 197.702 60.365 197.773L51.052 203.112C50.9037 203.189 50.752 203.223 50.5969 203.214C50.4288 203.207 50.2807 203.156 50.1524 203.063C50.0468 202.986 49.9979 202.887 50.0055 202.765C50.0132 202.644 50.0716 202.548 50.1808 202.477L59.4938 197.138C59.6421 197.061 59.7976 197.03 59.9602 197.045C60.1208 197.046 60.2652 197.094 60.3934 197.187Z" fill="#725B4C"/>
<path d="M45.1802 186.195C46.0381 186.205 46.8682 186.62 47.6705 187.441C48.4729 188.263 48.8691 189.102 48.8592 189.96C48.8426 190.824 48.4038 191.677 47.5427 192.519L43.1469 196.814C43.0335 196.925 42.8975 196.98 42.7392 196.978C42.5808 196.976 42.4494 196.922 42.345 196.815C42.2341 196.701 42.1796 196.565 42.1814 196.407C42.1833 196.249 42.2409 196.114 42.3544 196.003L46.7801 191.678C47.4277 191.046 47.768 190.439 47.8011 189.859C47.8276 189.272 47.5539 188.684 46.9799 188.097C46.4058 187.509 45.825 187.222 45.2375 187.235C44.6499 187.248 44.0324 187.571 43.3849 188.204L38.9391 192.548C38.8256 192.659 38.6963 192.714 38.5511 192.712C38.3994 192.704 38.2714 192.646 38.167 192.539C38.0626 192.433 38.0113 192.307 38.0129 192.161C38.0081 192.009 38.0624 191.878 38.1759 191.767L42.5916 187.452C43.4527 186.611 44.3156 186.192 45.1802 186.195Z" fill="#725B4C"/>
<path d="M35.0929 173.317C35.2487 173.345 35.3741 173.429 35.4694 173.568C35.5646 173.706 35.6004 173.857 35.5769 174.02C35.5405 174.181 35.453 174.309 35.3146 174.405L27.8867 179.515C27.7482 179.61 27.6012 179.643 27.4454 179.614C27.2767 179.583 27.1447 179.498 27.0495 179.36C26.9543 179.222 26.9249 179.072 26.9614 178.911C26.9849 178.747 27.0658 178.618 27.2042 178.523L34.6322 173.413C34.7706 173.318 34.9242 173.286 35.0929 173.317Z" fill="#725B4C"/>
<path d="M15.4961 156.549L23.1953 153.882C23.2658 153.857 23.2962 153.802 23.2863 153.717C23.2289 153.351 23.1254 152.953 22.9757 152.521C22.5327 151.242 21.8781 150.422 21.012 150.06C20.1428 149.689 18.9674 149.761 17.4858 150.274C16.1364 150.741 15.2497 151.389 14.8255 152.218C14.3895 153.04 14.3899 154.082 14.8267 155.343C14.9764 155.776 15.1417 156.153 15.3226 156.476C15.3677 156.549 15.4256 156.573 15.4961 156.549ZM24.3239 153.846C24.3707 154.067 24.3392 154.276 24.2294 154.472C24.1107 154.671 23.9411 154.809 23.7206 154.885L15.704 157.662C15.4835 157.738 15.271 157.738 15.0664 157.661C14.85 157.578 14.6903 157.43 14.5875 157.219C14.3578 156.755 14.1421 156.233 13.9404 155.651C12.8528 152.511 13.9185 150.384 17.1375 149.268C20.5329 148.092 22.7744 149.074 23.862 152.214C24.0636 152.796 24.2176 153.34 24.3239 153.846Z" fill="#725B4C"/>
<path d="M11.5979 132.879C11.7813 134.163 12.6438 134.756 14.1855 134.659C14.2594 134.648 14.2904 134.601 14.2786 134.518L13.7462 130.79C13.7357 130.716 13.6934 130.684 13.6195 130.695C12.1029 130.968 11.429 131.696 11.5979 132.879ZM18.2366 131.634C18.3989 132.77 18.2127 133.678 17.6781 134.358C17.1342 135.039 16.2386 135.469 14.9912 135.647C13.7069 135.83 12.7243 135.683 12.0432 135.205C11.3516 134.719 10.9352 133.982 10.794 132.994C10.5342 131.173 11.4727 130.054 13.6097 129.636C13.8301 129.595 14.0308 129.646 14.2116 129.79C14.3818 129.926 14.4828 130.105 14.5145 130.327L15.1002 134.429C15.1108 134.503 15.1576 134.534 15.2408 134.522C16.9198 134.198 17.6458 133.241 17.4189 131.652C17.3437 131.125 17.1695 130.598 16.8963 130.072C16.8448 129.975 16.8448 129.876 16.8963 129.775C16.9386 129.674 17.0151 129.616 17.126 129.6C17.4402 129.556 17.6546 129.671 17.7695 129.947C18.0017 130.517 18.1574 131.079 18.2366 131.634Z" fill="#725B4C"/>
<path d="M13.5142 115.34C13.2766 116.24 12.9849 116.881 12.6391 117.264C12.2842 117.638 11.8361 117.818 11.295 117.804C10.6792 117.789 10.1998 117.548 9.85684 117.082C9.50479 116.606 9.33965 115.939 9.36142 115.081C9.37775 114.437 9.47793 113.8 9.66197 113.17C9.74395 112.882 9.93889 112.742 10.2468 112.75C10.3588 112.753 10.4417 112.797 10.4955 112.883C10.5494 112.968 10.5609 113.066 10.53 113.178C10.3278 113.789 10.2189 114.402 10.2033 115.018C10.1749 116.137 10.5199 116.706 11.2383 116.725C11.5556 116.733 11.8243 116.627 12.0446 116.409C12.2555 116.19 12.4338 115.789 12.5793 115.204C12.8288 114.202 13.1309 113.519 13.4856 113.154C13.8405 112.781 14.3399 112.602 14.9837 112.618C15.6088 112.634 16.0925 112.889 16.4347 113.383C16.7772 113.868 16.9373 114.549 16.9151 115.426C16.8978 116.107 16.7787 116.753 16.5578 117.364C16.4572 117.651 16.2529 117.79 15.945 117.782C15.8424 117.78 15.7643 117.731 15.7107 117.636C15.6477 117.541 15.6362 117.443 15.6761 117.341C15.9248 116.741 16.0571 116.123 16.0732 115.489C16.103 114.313 15.7307 113.716 14.9563 113.696C14.6204 113.687 14.3374 113.802 14.1074 114.039C13.8775 114.266 13.6798 114.7 13.5142 115.34Z" fill="#725B4C"/>
<path d="M17.8248 100.134C17.918 100.254 17.9514 100.392 17.9248 100.548C17.8983 100.705 17.8204 100.829 17.6913 100.921C17.5637 101.003 17.4263 101.032 17.279 101.007L11.2059 99.9763C11.0586 99.9514 10.9384 99.8789 10.8451 99.7589C10.7535 99.6298 10.7209 99.487 10.7474 99.3305C10.774 99.1741 10.851 99.0547 10.9786 98.9722C11.1078 98.8805 11.246 98.8471 11.3932 98.8721L17.4664 99.9026C17.6136 99.9276 17.7331 100.005 17.8248 100.134ZM8.96344 98.6302C9.04748 98.7486 9.07623 98.886 9.04969 99.0425C9.02315 99.1989 8.9499 99.3237 8.82994 99.417C8.70235 99.4995 8.56033 99.5274 8.4039 99.5009L8.03123 99.4377C7.884 99.4127 7.76376 99.3402 7.67051 99.2203C7.57883 99.0911 7.54626 98.9483 7.5728 98.7919C7.59934 98.6354 7.67641 98.516 7.80401 98.4335C7.93317 98.3418 8.07136 98.3085 8.21859 98.3334L8.59126 98.3967C8.74769 98.4232 8.87175 98.5011 8.96344 98.6302Z" fill="#725B4C"/>
<path d="M14.6952 84.897C14.2656 86.1803 14.9492 87.1227 16.7458 87.7241C17.6397 88.0234 18.3775 88.0833 18.9592 87.904C19.5438 87.7159 19.9369 87.3209 20.1383 86.7191C20.3102 86.2057 20.2695 85.6951 20.0163 85.1871C19.7661 84.6703 19.3755 84.323 18.8445 84.1452L17.3045 83.6297C16.7734 83.4519 16.248 83.4926 15.7282 83.7516C15.2114 84.0019 14.8671 84.3836 14.6952 84.897ZM20.846 87.2512C20.5764 88.0566 20.0489 88.6035 19.2634 88.8917C18.4721 89.1681 17.5188 89.1197 16.4036 88.7464C15.2265 88.3523 14.4318 87.8156 14.0194 87.1363C13.6101 86.448 13.5402 85.7012 13.8098 84.8958C14.109 84.0019 14.7208 83.3947 15.645 83.0742C15.6568 83.0683 15.6642 83.0609 15.6671 83.0521C15.6701 83.0432 15.6672 83.0373 15.6583 83.0343L15.1716 82.8566C15.0388 82.8122 14.943 82.7309 14.8841 82.6128C14.8193 82.4828 14.8092 82.3515 14.8536 82.2187C14.8981 82.086 14.9838 81.9916 15.1107 81.9357C15.2318 81.868 15.3588 81.8563 15.4915 81.9008L21.5188 83.9184C22.7136 84.3184 23.4995 84.8669 23.8764 85.5639C24.2621 86.2639 24.2713 87.1626 23.9039 88.2601C23.7202 88.8089 23.4938 89.2941 23.2247 89.7158C23.0591 89.9753 22.8258 90.0547 22.5249 89.954C22.4187 89.9184 22.3435 89.849 22.2994 89.7456C22.267 89.6364 22.2849 89.539 22.3529 89.4535C22.6781 89.0112 22.9296 88.5245 23.1074 87.9935C23.3651 87.2235 23.3467 86.6022 23.0522 86.1296C22.7606 85.6481 22.1502 85.2518 21.2209 84.9407L20.5703 84.723C20.5615 84.72 20.5556 84.7229 20.5526 84.7318C20.5497 84.7406 20.5511 84.751 20.557 84.7628C21.0489 85.5278 21.1453 86.3573 20.846 87.2512Z" fill="#725B4C"/>
<path d="M26.9263 71.1864C26.9657 71.3261 26.949 71.4611 26.876 71.5914C26.803 71.7217 26.6966 71.8065 26.5569 71.8459C26.4171 71.8853 26.2821 71.8685 26.1518 71.7956L20.7043 68.7441C20.5821 68.6757 20.5031 68.578 20.4673 68.4509C20.4279 68.3112 20.4424 68.1802 20.5108 68.0581C20.5793 67.9359 20.6833 67.8552 20.8231 67.8158C20.9547 67.7718 21.0816 67.784 21.2037 67.8525L21.7045 68.133C21.7126 68.1375 21.719 68.1357 21.7236 68.1276C21.7281 68.1195 21.7286 68.109 21.725 68.0963C21.345 67.1132 21.3808 66.2186 21.8323 65.4124C22.2474 64.6714 22.7561 64.2503 23.3584 64.1491C23.9607 64.0479 24.7423 64.2663 25.7031 64.8046L29.0254 66.6656C29.1557 66.7385 29.2405 66.8449 29.2799 66.9846C29.3239 67.1162 29.3094 67.2472 29.2364 67.3775C29.1634 67.5078 29.0571 67.5926 28.9173 67.632C28.7776 67.6714 28.6426 67.6546 28.5123 67.5816L25.3121 65.7891C24.506 65.3375 23.8988 65.1418 23.4907 65.202C23.0744 65.2577 22.7203 65.5461 22.4284 66.0672C22.1912 66.4907 22.1603 67.0136 22.3358 67.6361C22.5032 68.2541 22.7945 68.6794 23.2098 68.912L26.6787 70.8551C26.8089 70.928 26.8915 71.0385 26.9263 71.1864Z" fill="#725B4C"/>
<path d="M32.9449 49.8499C32.119 50.8504 32.2614 51.8876 33.3718 52.9615C33.4294 53.009 33.4849 53.0004 33.5384 52.9356L35.9357 50.0311C35.9832 49.9736 35.9782 49.921 35.9206 49.8735C34.6972 48.9364 33.7053 48.9285 32.9449 49.8499ZM38.3363 53.9186C37.6055 54.804 36.8089 55.278 35.9464 55.3406C35.0767 55.3973 34.1559 55.0246 33.1842 54.2225C32.1836 53.3967 31.6306 52.5712 31.5251 51.7459C31.4184 50.9075 31.6829 50.1032 32.3186 49.333C33.489 47.915 34.9485 47.8549 36.6969 49.1528C36.8756 49.2882 36.9727 49.4712 36.9881 49.7017C37.0023 49.9192 36.9381 50.1143 36.7955 50.287L34.1576 53.483C34.1101 53.5406 34.1187 53.5961 34.1835 53.6496C35.5542 54.672 36.7505 54.5642 37.7724 53.3261C38.1111 52.9158 38.383 52.4324 38.5884 51.8757C38.6249 51.7728 38.6981 51.7061 38.8079 51.6757C38.9105 51.6394 39.005 51.6568 39.0914 51.7281C39.3361 51.9301 39.3952 52.1665 39.2686 52.4371C39.0035 52.9929 38.6927 53.4867 38.3363 53.9186Z" fill="#725B4C"/>
<path d="M48.1919 42.7066C48.1882 42.8585 48.1266 42.9866 48.007 43.091C47.8875 43.1953 47.7487 43.2421 47.5907 43.2314C47.4397 43.2146 47.3151 43.1499 47.2169 43.0374L43.1475 38.3757C43.0493 38.2632 43.0051 38.1345 43.0149 37.9897C43.0247 37.8448 43.0859 37.7233 43.1984 37.6251C43.3109 37.5269 43.4396 37.4827 43.5844 37.4925C43.7293 37.5023 43.8508 37.5635 43.949 37.676L44.658 38.4881C44.6641 38.4951 44.6707 38.4956 44.6777 38.4894C44.6918 38.4772 44.6927 38.464 44.6804 38.4499C44.5844 37.9142 44.6342 37.3752 44.8298 36.8328C45.0262 36.2773 45.3543 35.7803 45.814 35.3418C45.9063 35.2488 46.0183 35.2068 46.15 35.2157C46.2817 35.2247 46.3905 35.2784 46.4764 35.3768C46.5562 35.4682 46.5916 35.5798 46.5827 35.7114C46.5808 35.837 46.5337 35.9463 46.4414 36.0392C45.7699 36.675 45.41 37.3484 45.3617 38.0596C45.3074 38.7637 45.5748 39.4532 46.164 40.1282L48.0606 42.3008C48.1589 42.4133 48.2026 42.5486 48.1919 42.7066Z" fill="#725B4C"/>
<path d="M96.1542 17.8373C96.07 17.9638 95.9496 18.0393 95.7928 18.0638C95.636 18.0883 95.4937 18.0538 95.3657 17.9604C95.247 17.8656 95.1761 17.7444 95.1531 17.5969L93.7854 8.84108C93.7523 8.62898 93.8018 8.43231 93.9341 8.25105C94.0664 8.0698 94.2386 7.96261 94.4507 7.92948L98.96 7.22511C99.0891 7.20494 99.207 7.23377 99.3136 7.31158C99.4202 7.38939 99.4829 7.48823 99.5016 7.60811C99.5203 7.72799 99.4915 7.84585 99.4151 7.96169C99.3373 8.06831 99.2339 8.1317 99.1048 8.15187L95.0381 8.7871C94.9551 8.80007 94.9193 8.84343 94.9309 8.91721L95.4321 12.1263C95.4437 12.2001 95.4909 12.2305 95.5739 12.2175L99.3916 11.6212C99.5207 11.601 99.634 11.6305 99.7314 11.7098C99.8273 11.7798 99.8847 11.8748 99.9034 11.9947C99.9221 12.1145 99.8972 12.2271 99.8286 12.3322C99.7586 12.4282 99.659 12.4863 99.5299 12.5064L95.7122 13.1028C95.6292 13.1157 95.5942 13.1637 95.6071 13.2467L96.2597 17.4241C96.2827 17.5716 96.2475 17.7093 96.1542 17.8373Z" fill="#725B4C"/>
<path d="M114.498 15.8625C114.393 15.9729 114.262 16.0267 114.103 16.0241C113.944 16.0215 113.81 15.9633 113.7 15.8495C113.599 15.7359 113.55 15.6044 113.552 15.4551L113.653 9.26789C113.656 9.11858 113.709 8.99344 113.813 8.89246C113.918 8.79148 114.044 8.74221 114.194 8.74464C114.343 8.74708 114.468 8.80046 114.569 8.90479C114.67 9.00911 114.719 9.13594 114.717 9.28525L114.699 10.3631C114.699 10.3724 114.704 10.3772 114.713 10.3773C114.732 10.3776 114.741 10.3685 114.742 10.3498C115.029 9.88775 115.427 9.52086 115.936 9.24912C116.454 8.9682 117.03 8.81892 117.665 8.80127C117.796 8.79407 117.907 8.83789 117.999 8.93273C118.091 9.02758 118.136 9.14032 118.134 9.27097C118.132 9.39229 118.083 9.49885 117.988 9.59065C117.903 9.6826 117.795 9.73217 117.664 9.73937C116.739 9.76163 116.021 10.0206 115.509 10.5163C114.997 11.0027 114.734 11.6938 114.719 12.5897L114.672 15.4733C114.67 15.6227 114.611 15.7524 114.498 15.8625Z" fill="#725B4C"/>
<path d="M134.701 14.0919C135.067 12.1662 134.516 11.0642 133.049 10.7857C131.581 10.5073 130.665 11.3308 130.3 13.2564C129.934 15.1821 130.485 16.2841 131.952 16.5626C133.419 16.8411 134.336 16.0175 134.701 14.0919ZM134.388 16.8681C133.687 17.4095 132.823 17.5828 131.796 17.3879C130.769 17.1929 130.028 16.7151 129.574 15.9544C129.12 15.1937 129.004 14.2265 129.227 13.0528C129.45 11.8791 129.912 11.0216 130.613 10.4802C131.314 9.93876 132.178 9.76553 133.205 9.96046C134.232 10.1554 134.973 10.6332 135.427 11.3939C135.881 12.1546 135.997 13.1218 135.774 14.2955C135.551 15.4692 135.089 16.3268 134.388 16.8681Z" fill="#725B4C"/>
<path d="M148.134 21.0246C148.001 21.0825 147.865 21.0841 147.726 21.0294C147.587 20.9747 147.489 20.8807 147.431 20.7476C147.373 20.6144 147.371 20.4784 147.426 20.3394L149.714 14.5297C149.765 14.3994 149.851 14.308 149.972 14.2553C150.105 14.1974 150.237 14.1941 150.367 14.2454C150.498 14.2967 150.592 14.3889 150.65 14.5221C150.711 14.6465 150.716 14.7739 150.665 14.9042L150.454 15.4382C150.451 15.4469 150.453 15.453 150.462 15.4564C150.471 15.4598 150.481 15.4589 150.493 15.4536C151.416 14.9443 152.307 14.859 153.167 15.1975C153.957 15.5087 154.443 15.9559 154.625 16.539C154.807 17.1221 154.696 17.926 154.292 18.9508L152.897 22.4939C152.842 22.6329 152.748 22.7313 152.615 22.7892C152.491 22.8505 152.359 22.8538 152.22 22.7991C152.081 22.7444 151.983 22.6505 151.925 22.5173C151.867 22.3842 151.865 22.2481 151.92 22.1092L153.264 18.6963C153.602 17.8366 153.714 17.2085 153.6 16.8123C153.488 16.4073 153.155 16.0954 152.599 15.8765C152.147 15.6987 151.625 15.7387 151.032 15.9967C150.442 16.246 150.06 16.5921 149.886 17.035L148.429 20.7344C148.374 20.8734 148.276 20.9701 148.134 21.0246Z" fill="#725B4C"/>
<path d="M167.399 23.0515C167.294 22.9893 167.225 22.9047 167.191 22.7975C167.17 22.6871 167.191 22.5798 167.253 22.4756C167.315 22.3714 167.398 22.3064 167.5 22.2806C167.615 22.2515 167.725 22.2681 167.829 22.3303L168.707 22.8542C168.779 22.8973 168.836 22.8828 168.879 22.8106L169.906 21.0917C169.982 20.9635 170.091 20.8816 170.232 20.8461C170.372 20.8106 170.507 20.8311 170.635 20.9076C170.763 20.9842 170.845 21.0929 170.881 21.2336C170.916 21.3744 170.896 21.5089 170.819 21.6371L169.793 23.3561C169.75 23.4282 169.764 23.4858 169.837 23.5289L171.64 24.6054C171.744 24.6676 171.806 24.7539 171.827 24.8643C171.861 24.9715 171.847 25.0771 171.785 25.1813C171.723 25.2855 171.634 25.3521 171.519 25.3812C171.416 25.407 171.313 25.3888 171.209 25.3266L169.406 24.2501C169.334 24.207 169.276 24.2215 169.233 24.2937L167.338 27.4671C166.994 28.0441 166.843 28.4702 166.885 28.7454C166.932 29.0126 167.172 29.2754 167.605 29.5338C167.861 29.6869 168.085 29.7936 168.278 29.854C168.375 29.8906 168.443 29.9585 168.482 30.0577C168.534 30.1536 168.533 30.2456 168.48 30.3338C168.413 30.446 168.317 30.5246 168.193 30.5697C168.076 30.6196 167.961 30.6214 167.847 30.5753C167.615 30.4909 167.338 30.3531 167.018 30.1617C166.313 29.7406 165.91 29.3045 165.81 28.8534C165.722 28.399 165.911 27.7831 166.375 27.0058L168.32 23.7482C168.363 23.6761 168.348 23.6185 168.276 23.5755L167.399 23.0515Z" fill="#725B4C"/>
<path d="M182.206 32.4225C181.208 31.5935 180.17 31.7326 179.093 32.8396C179.045 32.897 179.053 32.9526 179.118 33.0063L182.015 35.4127C182.072 35.4605 182.125 35.4556 182.173 35.3982C183.114 34.1778 183.125 33.1859 182.206 32.4225ZM178.12 37.801C177.237 37.0674 176.765 36.2693 176.705 35.4066C176.652 34.5367 177.027 33.6171 177.832 32.6479C178.661 31.65 179.489 31.0996 180.314 30.9968C181.153 30.8927 181.956 31.1598 182.725 31.7979C184.139 32.9729 184.194 34.4325 182.891 36.1768C182.755 36.3551 182.572 36.4516 182.341 36.4662C182.124 36.4797 181.929 36.4149 181.756 36.2718L178.569 33.6237C178.511 33.576 178.456 33.5845 178.402 33.6491C177.375 35.0166 177.479 36.2132 178.714 37.239C179.123 37.579 179.606 37.8525 180.162 38.0596C180.265 38.0964 180.331 38.1698 180.361 38.2797C180.397 38.3824 180.379 38.4769 180.308 38.563C180.105 38.8071 179.869 38.8654 179.598 38.738C179.043 38.4712 178.551 38.1588 178.12 37.801Z" fill="#725B4C"/>
<path d="M189.369 47.6895C189.225 47.6769 189.104 47.6133 189.008 47.499C188.912 47.3846 188.871 47.255 188.883 47.1104C188.896 46.9658 188.959 46.8454 189.074 46.7495L193.857 42.7357C193.964 42.6457 194.083 42.6064 194.215 42.6179C194.36 42.6306 194.477 42.6905 194.567 42.7978C194.657 42.905 194.696 43.031 194.683 43.1756C194.677 43.3142 194.621 43.4286 194.514 43.5185L194.074 43.8875C194.067 43.8935 194.066 43.9001 194.072 43.9073C194.078 43.9144 194.088 43.9186 194.101 43.9197C195.155 43.9125 195.979 44.2628 196.573 44.9706C197.119 45.6212 197.333 46.246 197.214 46.8452C197.095 47.4443 196.614 48.0978 195.771 48.8058L192.854 51.2536C192.739 51.3496 192.61 51.3913 192.465 51.3787C192.326 51.3732 192.209 51.3132 192.113 51.1988C192.017 51.0844 191.975 50.9549 191.988 50.8103C192.001 50.6656 192.064 50.5453 192.179 50.4493L194.988 48.0914C195.696 47.4975 196.094 46.999 196.182 46.596C196.278 46.1869 196.134 45.7536 195.75 45.2961C195.438 44.9243 194.959 44.7102 194.315 44.6539C193.678 44.5916 193.177 44.7134 192.812 45.0194L189.767 47.5752C189.652 47.6712 189.52 47.7093 189.369 47.6895Z" fill="#725B4C"/>
<path d="M207.24 60.9719C206.556 59.7504 205.359 59.6187 203.649 60.5765C202.802 61.0509 202.252 61.5677 201.998 62.127C201.749 62.6945 201.786 63.2673 202.11 63.8454C202.375 64.3177 202.775 64.6499 203.31 64.8421C203.854 65.0296 204.337 65.0048 204.761 64.7676L206.642 63.714C207.057 63.4814 207.327 63.0843 207.451 62.5227C207.579 61.9692 207.509 61.4523 207.24 60.9719ZM201.268 64.0605C200.843 63.3032 200.79 62.5202 201.107 61.7113C201.437 60.9061 202.111 60.2184 203.129 59.6482C204.179 59.0598 205.117 58.834 205.943 58.9707C206.781 59.111 207.421 59.5761 207.863 60.3659C208.31 61.1639 208.369 62.0032 208.038 62.8837C208.035 62.8964 208.035 62.9068 208.04 62.915C208.044 62.9231 208.05 62.9249 208.059 62.9203L211.222 61.1483C211.352 61.0753 211.487 61.0585 211.627 61.0979C211.771 61.1455 211.88 61.2344 211.953 61.3647C212.026 61.495 212.043 61.63 212.003 61.7697C211.964 61.9095 211.879 62.0158 211.749 62.0888L203.492 66.7139C203.37 66.7823 203.239 66.7968 203.099 66.7574C202.972 66.7216 202.874 66.6426 202.806 66.5205C202.738 66.3983 202.719 66.2697 202.75 66.1345C202.79 65.9947 202.87 65.8907 202.993 65.8222L203.445 65.5691C203.453 65.5645 203.454 65.5582 203.45 65.55C203.445 65.5419 203.437 65.536 203.424 65.5324C202.443 65.3655 201.724 64.8748 201.268 64.0605Z" fill="#725B4C"/>
<path d="M221.228 86.9248L213.264 88.6467C213.191 88.6624 213.154 88.7134 213.154 88.7994C213.167 89.169 213.222 89.5773 213.318 90.0243C213.604 91.3471 214.155 92.2401 214.972 92.7034C215.79 93.1758 216.965 93.2463 218.498 92.9149C219.894 92.6132 220.852 92.0765 221.373 91.3051C221.905 90.5408 222.029 89.5063 221.747 88.2018C221.651 87.7548 221.532 87.3603 221.391 87.0183C221.355 86.9402 221.301 86.909 221.228 86.9248ZM212.139 88.5461C212.119 88.3212 212.176 88.118 212.308 87.9366C212.45 87.7531 212.635 87.6368 212.863 87.5875L221.155 85.7946C221.383 85.7453 221.594 85.7713 221.788 85.8726C221.993 85.9811 222.134 86.1464 222.21 86.3686C222.383 86.8565 222.534 87.4015 222.664 88.0036C223.366 91.2512 222.053 93.235 218.723 93.9549C215.211 94.7143 213.104 93.4701 212.401 90.2225C212.271 89.6204 212.184 89.0616 212.139 88.5461Z" fill="#725B4C"/>
<path d="M222.251 110.892C222.224 109.595 221.439 108.902 219.897 108.813C219.822 108.815 219.786 108.858 219.787 108.942L219.867 112.707C219.869 112.782 219.907 112.818 219.982 112.817C221.52 112.728 222.277 112.086 222.251 110.892ZM215.511 111.329C215.487 110.182 215.781 109.302 216.393 108.692C217.015 108.081 217.956 107.763 219.216 107.736C220.513 107.708 221.47 107.972 222.089 108.529C222.717 109.094 223.042 109.876 223.063 110.875C223.102 112.713 222.036 113.711 219.864 113.869C219.64 113.883 219.447 113.808 219.285 113.644C219.133 113.488 219.054 113.298 219.049 113.074L218.961 108.931C218.959 108.857 218.917 108.82 218.833 108.822C217.127 108.942 216.291 109.805 216.325 111.41C216.336 111.942 216.446 112.486 216.654 113.041C216.693 113.143 216.681 113.242 216.618 113.336C216.564 113.431 216.481 113.479 216.369 113.482C216.052 113.488 215.853 113.348 215.772 113.06C215.61 112.466 215.523 111.889 215.511 111.329Z" fill="#725B4C"/>
<path d="M215.814 127.165L222.128 125.974C222.265 125.949 222.382 125.982 222.481 126.073C222.588 126.175 222.63 126.295 222.608 126.433C222.58 126.609 222.504 126.757 222.381 126.879C222.257 127.001 222.108 127.077 221.934 127.106L215.62 128.112C215.611 128.111 215.606 128.114 215.604 128.124C215.601 128.142 215.604 128.152 215.614 128.154L221.328 131.078C221.478 131.149 221.588 131.261 221.658 131.414C221.737 131.568 221.763 131.729 221.737 131.894C221.715 132.033 221.643 132.13 221.52 132.186C221.397 132.251 221.274 132.251 221.152 132.184L215.51 129.073C215.319 128.967 215.173 128.816 215.071 128.62C214.98 128.426 214.951 128.223 214.984 128.011C215.018 127.799 215.11 127.61 215.259 127.445C215.416 127.29 215.601 127.197 215.814 127.165Z" fill="#725B4C"/>
<path d="M217.129 148.409C217.559 147.185 217.067 146.261 215.654 145.636C215.584 145.612 215.535 145.639 215.507 145.718L214.26 149.272C214.235 149.342 214.258 149.39 214.328 149.414C215.8 149.871 216.733 149.536 217.129 148.409ZM210.665 146.452C211.045 145.369 211.629 144.649 212.417 144.292C213.213 143.939 214.206 143.971 215.395 144.388C216.619 144.818 217.423 145.401 217.807 146.14C218.197 146.89 218.226 147.736 217.895 148.678C217.286 150.413 215.937 150.973 213.848 150.359C213.634 150.293 213.48 150.155 213.386 149.944C213.297 149.745 213.29 149.54 213.364 149.328L214.737 145.418C214.761 145.348 214.734 145.298 214.655 145.271C213.015 144.784 211.93 145.298 211.398 146.813C211.222 147.315 211.134 147.863 211.133 148.456C211.134 148.565 211.089 148.653 210.996 148.72C210.912 148.789 210.818 148.805 210.712 148.768C210.413 148.663 210.276 148.462 210.301 148.164C210.358 147.551 210.479 146.98 210.665 146.452Z" fill="#725B4C"/>
<path d="M205.033 160.757C204.981 160.614 204.992 160.472 205.065 160.331C205.138 160.191 205.251 160.097 205.402 160.049C205.548 160.01 205.688 160.024 205.82 160.093L214.139 164.427C214.272 164.496 214.364 164.602 214.416 164.745C214.463 164.896 214.451 165.042 214.377 165.183C214.304 165.323 214.194 165.413 214.047 165.453C213.896 165.5 213.754 165.49 213.622 165.421L205.303 161.087C205.171 161.018 205.081 160.908 205.033 160.757Z" fill="#725B4C"/>
<path d="M199.968 175.718C201.551 176.875 202.782 176.85 203.664 175.645C204.545 174.439 204.194 173.258 202.612 172.102C201.029 170.945 199.798 170.97 198.916 172.175C198.035 173.381 198.386 174.562 199.968 175.718ZM197.595 174.244C197.407 173.378 197.621 172.523 198.238 171.68C198.855 170.836 199.604 170.372 200.486 170.288C201.368 170.204 202.292 170.515 203.256 171.22C204.221 171.925 204.797 172.71 204.985 173.576C205.173 174.442 204.959 175.297 204.342 176.14C203.725 176.984 202.976 177.448 202.094 177.532C201.212 177.616 200.288 177.305 199.324 176.6C198.359 175.895 197.783 175.11 197.595 174.244Z" fill="#725B4C"/>
<path d="M190.879 188.263L189.521 186.811C189.158 186.422 188.692 186.232 188.124 186.239C187.556 186.247 187.067 186.442 186.658 186.824C186.174 187.277 185.968 187.808 186.04 188.418C186.112 189.041 186.476 189.704 187.133 190.406C188.472 191.837 189.653 192.075 190.675 191.118C191.091 190.729 191.318 190.248 191.357 189.675C191.396 189.115 191.236 188.644 190.879 188.263ZM185.827 182.636C185.832 182.491 185.889 182.368 185.998 182.266C186.107 182.164 186.237 182.112 186.389 182.11C186.535 182.115 186.658 182.172 186.76 182.281L193.13 189.09C193.225 189.193 193.271 189.31 193.267 189.442C193.262 189.587 193.208 189.707 193.106 189.803C193.004 189.898 192.88 189.944 192.735 189.939C192.596 189.941 192.479 189.891 192.384 189.788L192.01 189.41C192.003 189.403 191.997 189.403 191.99 189.409L191.989 189.448C192.068 190.435 191.764 191.25 191.075 191.894C190.414 192.513 189.666 192.759 188.832 192.632C187.997 192.518 187.168 192.022 186.346 191.142C185.549 190.29 185.119 189.427 185.055 188.554C184.992 187.693 185.277 186.966 185.911 186.373C186.606 185.723 187.41 185.463 188.324 185.592C188.337 185.593 188.347 185.59 188.354 185.583C188.36 185.577 188.361 185.57 188.354 185.563L185.973 183.018C185.871 182.909 185.822 182.782 185.827 182.636Z" fill="#725B4C"/>
<path d="M175.736 203.383C176.826 202.68 177.005 201.648 176.273 200.288C176.232 200.225 176.177 200.217 176.106 200.262L172.941 202.303C172.878 202.343 172.867 202.395 172.907 202.458C173.789 203.722 174.732 204.03 175.736 203.383ZM171.832 197.871C172.797 197.248 173.7 197.038 174.541 197.24C175.387 197.45 176.151 198.084 176.834 199.143C177.537 200.234 177.813 201.188 177.664 202.006C177.511 202.838 177.015 203.524 176.176 204.065C174.63 205.061 173.221 204.676 171.949 202.909C171.82 202.726 171.783 202.522 171.838 202.298C171.89 202.086 172.011 201.92 172.199 201.798L175.682 199.553C175.745 199.512 175.753 199.457 175.708 199.386C174.712 197.996 173.539 197.736 172.19 198.606C171.743 198.894 171.337 199.273 170.972 199.741C170.906 199.828 170.816 199.869 170.703 199.865C170.594 199.868 170.509 199.823 170.448 199.729C170.276 199.462 170.292 199.219 170.494 198.999C170.916 198.55 171.361 198.174 171.832 197.871Z" fill="#725B4C"/>
<path d="M159.04 205.566C159.09 205.422 159.188 205.319 159.333 205.255C159.479 205.192 159.625 205.19 159.772 205.248C159.911 205.31 160.01 205.409 160.07 205.546L162.534 211.222C162.593 211.359 162.596 211.495 162.543 211.63C162.49 211.765 162.395 211.863 162.258 211.922C162.121 211.982 161.985 211.985 161.85 211.931C161.715 211.878 161.617 211.783 161.558 211.646L161.129 210.657C161.125 210.649 161.119 210.646 161.11 210.65C161.093 210.657 161.088 210.67 161.096 210.687C161.025 211.226 160.814 211.725 160.463 212.182C160.107 212.652 159.644 213.026 159.073 213.305C158.957 213.365 158.837 213.371 158.714 213.323C158.592 213.275 158.504 213.19 158.452 213.071C158.404 212.959 158.404 212.842 158.452 212.719C158.492 212.6 158.57 212.511 158.687 212.45C159.519 212.048 160.066 211.515 160.328 210.852C160.593 210.198 160.548 209.459 160.191 208.638L159.042 205.992C158.983 205.855 158.982 205.713 159.04 205.566Z" fill="#725B4C"/>
</svg>
