<svg width="40" height="47" viewBox="0 0 40 47" fill="none" xmlns="http://www.w3.org/2000/svg">
<path d="M39.448 34.52C39.448 37.3787 38.104 39.896 35.416 42.072C33.112 43.9493 31.0213 44.888 29.144 44.888C27.1386 44.888 25.7093 44.1627 24.856 42.712C24.2586 41.688 23.96 40.2587 23.96 38.424C23.96 37.9547 23.96 37.528 23.96 37.144C23.96 36.7173 23.9813 36.312 24.024 35.928C24.024 34.9467 23.7893 34.072 23.32 33.304C22.68 32.2373 21.6986 31.704 20.376 31.704C19.096 31.704 18.072 32.8773 17.304 35.224C16.7066 37.016 16.408 38.7653 16.408 40.472C16.408 40.8133 16.1306 41.4533 15.576 42.392C14.1253 44.8667 12.3546 46.36 10.264 46.872H6.16798C4.03464 46.6587 2.45598 45.784 1.43198 44.248C0.578644 42.9253 0.151978 41.24 0.151978 39.192C0.151978 36.0347 1.62398 33.0907 4.56798 30.36C7.55464 27.5867 9.04798 24.984 9.04798 22.552C8.83464 20.888 8.62131 19.288 8.40798 17.752C8.23731 16.1733 8.15198 14.808 8.15198 13.656C8.15198 10.0293 9.30398 6.89333 11.608 4.248C13.912 1.60266 16.792 0.279999 20.248 0.279999C23.4053 0.279999 25.688 1.624 27.096 4.312C28.1626 6.31733 28.696 8.94133 28.696 12.184C28.696 14.9147 29.6133 17.752 31.448 20.696C33.1546 23.0853 34.904 25.5387 36.696 28.056C38.5306 30.5733 39.448 32.728 39.448 34.52ZM20.632 15.896C20.632 15.5547 20.5466 15.2773 20.376 15.064C20.248 14.8507 19.928 14.5307 19.416 14.104L19.608 14.424C19.0106 14.2533 18.456 14.36 17.944 14.744C17.4746 15.0853 17.24 15.4907 17.24 15.96C17.24 16.3013 17.3893 16.7067 17.688 17.176C17.9866 17.6453 18.3706 17.88 18.84 17.88C20.0346 17.88 20.632 17.2187 20.632 15.896Z" fill="#725B4C"/>
</svg>
