<svg width="24" height="24" viewBox="0 0 24 24" fill="none" xmlns="http://www.w3.org/2000/svg">
<path d="M22.08 16.9846V19.8206C22.0811 20.0838 22.0263 20.3444 21.9192 20.5857C21.8121 20.8269 21.655 21.0434 21.458 21.2214C21.261 21.3994 21.0284 21.5349 20.7751 21.6193C20.5218 21.7036 20.2535 21.7349 19.9872 21.7112C17.0331 21.3952 14.1955 20.4011 11.7024 18.8091C9.38286 17.3576 7.41631 15.4211 5.94239 13.137C4.31997 10.6708 3.3103 7.86297 2.99519 4.94094C2.9712 4.67952 3.00275 4.41605 3.08783 4.16729C3.17291 3.91854 3.30966 3.68996 3.48936 3.4961C3.66907 3.30224 3.8878 3.14735 4.13163 3.0413C4.37545 2.93524 4.63904 2.88034 4.90559 2.8801H7.78559C8.25148 2.87558 8.70315 3.03804 9.0564 3.3372C9.40965 3.63636 9.64038 4.05179 9.70559 4.50608C9.82715 5.41367 10.0526 6.3048 10.3776 7.16248C10.5068 7.50084 10.5347 7.86857 10.4581 8.22209C10.3816 8.57562 10.2037 8.90012 9.94559 9.15715L8.72639 10.3577C10.093 12.7244 12.083 14.684 14.4864 16.0298L15.7056 14.8292C15.9666 14.575 16.2961 14.3999 16.6551 14.3245C17.0141 14.2491 17.3876 14.2766 17.7312 14.4038C18.6022 14.7238 19.5071 14.9458 20.4288 15.0655C20.8951 15.1303 21.321 15.3616 21.6255 15.7154C21.9299 16.0693 22.0917 16.5209 22.08 16.9846Z" fill="#725B4C"/>
</svg>
